# xmcd
#
# Track frame offsets:
#	150
#	19106
#	37160
#	52450
#	77893
#	97172
#	111083
#	122704
#	139170
#	151126
#	163509
#	183303
#	197563
#	213684
#	227644
#	240436
#	254335
#	268105
#
# Disc length: 3790 seconds
#
# Revision: 0
# Processed by: cddbd v1.5.2PL0 Copyright (c) Steve Scherf et al.
# Submitted via: audiograbber 1.83.01
#
DISCID=050ecc12
DTITLE=Sampler - Ultimate Country
DYEAR=2015
DGENRE=Country - Western
TTITLE0=Dolly Parton and Kenny Rogers - Islands in the stream
TTITLE1=Billy Swan - I can help
TTITLE2=Brooks and Dunn - Ain't nothing 'bout you
TTITLE3=Sara Evans - Born to fly
TTITLE4=Kris Kristofferson - Me and Bobby Mcgee
TTITLE5=Willie Nelson and The Highwaymen - Highwayman
TTITLE6=Waylon and Willie Nelson Jennings - Mammas don't let your Babies grow up 
TTITLE6=to be Cowboys
TTITLE7=Joe Diffie - Pickup man
TTITLE8=Johnny Paycheck - Take this job and shove it
TTITLE9=Clint Black - A good run of bad luck
TTITLE10=Martina Mcbride - I just call you mine
TTITLE11=Love And Theft - Angel eyes
TTITLE12=Mary Chapin Carpenter - I feel lucky
TTITLE13=Ricochet - Daddy's money
TTITLE14=Jake Owen - Barefoot Blue Jean night
TTITLE15=Patty Loveless - Here I am
TTITLE16=Merle Haggard - That's the way love goes
TTITLE17=Earl Thomas Conley and Emmylou Harris - We believe in happy endings
EXTD=
EXTT0=
EXTT1=
EXTT2=
EXTT3=
EXTT4=
EXTT5=
EXTT6=
EXTT7=
EXTT8=
EXTT9=
EXTT10=
EXTT11=
EXTT12=
EXTT13=
EXTT14=
EXTT15=
EXTT16=
EXTT17=
PLAYORDER=
